<mxfile host="Electron" modified="2023-12-25T13:58:53.887Z" agent="Mozilla/5.0 (Windows NT 10.0; Win64; x64) AppleWebKit/537.36 (KHTML, like Gecko) draw.io/22.1.11 Chrome/114.0.5735.289 Electron/25.9.8 Safari/537.36" etag="UyY-f--01mr-3P6uW3a8" version="22.1.11" type="device">
  <diagram name="第 1 页" id="oN0lBeXDgqX4188JkpyI">
    <mxGraphModel dx="787" dy="715" grid="1" gridSize="10" guides="1" tooltips="1" connect="1" arrows="1" fold="1" page="1" pageScale="1" pageWidth="3300" pageHeight="4681" math="0" shadow="0">
      <root>
        <mxCell id="0" />
        <mxCell id="1" parent="0" />
        <mxCell id="v0FEULq-0MWJoLw7AnLs-53" value="" style="edgeStyle=orthogonalEdgeStyle;shape=connector;rounded=0;orthogonalLoop=1;jettySize=auto;html=1;labelBackgroundColor=default;strokeColor=default;align=center;verticalAlign=middle;fontFamily=Helvetica;fontSize=11;fontColor=default;endArrow=classic;endSize=3;opacity=60;" edge="1" parent="1" source="ibVQva4vcaxdjQody1lK-12">
          <mxGeometry relative="1" as="geometry">
            <mxPoint x="520" y="35" as="targetPoint" />
          </mxGeometry>
        </mxCell>
        <mxCell id="ibVQva4vcaxdjQody1lK-12" value="" style="rounded=1;whiteSpace=wrap;html=1;fillColor=#1ba1e2;fontColor=#ffffff;strokeColor=#006EAF;" parent="1" vertex="1">
          <mxGeometry x="345" y="95" width="350" height="150" as="geometry" />
        </mxCell>
        <mxCell id="ibVQva4vcaxdjQody1lK-6" value="" style="rounded=1;whiteSpace=wrap;html=1;fillColor=#dae8fc;strokeColor=#6c8ebf;strokeWidth=0;" parent="1" vertex="1">
          <mxGeometry x="350" y="265" width="205" height="310" as="geometry" />
        </mxCell>
        <mxCell id="ibVQva4vcaxdjQody1lK-3" value="&lt;font style=&quot;font-size: 15px;&quot;&gt;Adapter1&lt;/font&gt;" style="rounded=1;whiteSpace=wrap;html=1;fillColor=#FF9933;strokeColor=#cd4c4c;shadow=0;gradientColor=none;strokeWidth=4;" parent="1" vertex="1">
          <mxGeometry x="130" y="146" width="150" height="80" as="geometry" />
        </mxCell>
        <mxCell id="v0FEULq-0MWJoLw7AnLs-54" style="edgeStyle=orthogonalEdgeStyle;shape=connector;rounded=0;orthogonalLoop=1;jettySize=auto;html=1;entryX=0.5;entryY=1;entryDx=0;entryDy=0;labelBackgroundColor=default;strokeColor=default;align=center;verticalAlign=middle;fontFamily=Helvetica;fontSize=11;fontColor=default;endArrow=classic;endSize=3;opacity=60;" edge="1" parent="1" source="ibVQva4vcaxdjQody1lK-4" target="ibVQva4vcaxdjQody1lK-6">
          <mxGeometry relative="1" as="geometry" />
        </mxCell>
        <mxCell id="ibVQva4vcaxdjQody1lK-4" value="&lt;font style=&quot;font-size: 14px;&quot;&gt;数据输入&lt;/font&gt;" style="text;html=1;align=center;verticalAlign=middle;resizable=0;points=[];autosize=1;strokeColor=none;fillColor=none;" parent="1" vertex="1">
          <mxGeometry x="412.5" y="595" width="80" height="30" as="geometry" />
        </mxCell>
        <mxCell id="v0FEULq-0MWJoLw7AnLs-23" style="edgeStyle=orthogonalEdgeStyle;rounded=0;orthogonalLoop=1;jettySize=auto;html=1;exitX=0.466;exitY=0.001;exitDx=0;exitDy=0;exitPerimeter=0;endArrow=none;endFill=0;strokeWidth=2;opacity=50;" edge="1" parent="1" source="ibVQva4vcaxdjQody1lK-8">
          <mxGeometry relative="1" as="geometry">
            <mxPoint x="450" y="422" as="targetPoint" />
            <Array as="points" />
          </mxGeometry>
        </mxCell>
        <mxCell id="v0FEULq-0MWJoLw7AnLs-31" style="edgeStyle=orthogonalEdgeStyle;rounded=0;orthogonalLoop=1;jettySize=auto;html=1;exitX=0.177;exitY=0;exitDx=0;exitDy=0;exitPerimeter=0;entryX=0.25;entryY=1;entryDx=0;entryDy=0;endArrow=none;endFill=0;strokeWidth=2;opacity=50;" edge="1" parent="1" source="ibVQva4vcaxdjQody1lK-8">
          <mxGeometry relative="1" as="geometry">
            <mxPoint x="390" y="434.96000000000004" as="sourcePoint" />
            <mxPoint x="406.75" y="419.7" as="targetPoint" />
          </mxGeometry>
        </mxCell>
        <mxCell id="ibVQva4vcaxdjQody1lK-8" value="CLIP" style="rounded=1;whiteSpace=wrap;html=1;fillColor=#d5e8d4;strokeColor=#82b366;points=[[0,0,0,0,0],[0,0.25,0,0,0],[0,0.5,0,0,0],[0,0.75,0,0,0],[0,1,0,0,0],[0.19,0,0,0,0],[0.25,1,0,0,0],[0.37,0,0,0,0],[0.5,0,0,0,0],[0.5,1,0,0,0],[0.75,0,0,0,0],[0.75,1,0,0,0],[1,0,0,0,0],[1,0.25,0,0,0],[1,0.5,0,0,0],[1,0.75,0,0,0],[1,1,0,0,0]];" parent="1" vertex="1">
          <mxGeometry x="380" y="435" width="150" height="130" as="geometry" />
        </mxCell>
        <mxCell id="v0FEULq-0MWJoLw7AnLs-47" style="edgeStyle=orthogonalEdgeStyle;rounded=0;orthogonalLoop=1;jettySize=auto;html=1;exitX=0.75;exitY=0;exitDx=0;exitDy=0;entryX=0;entryY=0.5;entryDx=0;entryDy=0;" edge="1" parent="1" source="ibVQva4vcaxdjQody1lK-13" target="v0FEULq-0MWJoLw7AnLs-45">
          <mxGeometry relative="1" as="geometry" />
        </mxCell>
        <mxCell id="v0FEULq-0MWJoLw7AnLs-48" style="edgeStyle=orthogonalEdgeStyle;rounded=0;orthogonalLoop=1;jettySize=auto;html=1;exitX=0.377;exitY=-0.008;exitDx=0;exitDy=0;exitPerimeter=0;" edge="1" parent="1">
          <mxGeometry relative="1" as="geometry">
            <mxPoint x="509" y="115" as="targetPoint" />
            <mxPoint x="427.65199999999993" y="194.76" as="sourcePoint" />
            <Array as="points">
              <mxPoint x="428" y="192" />
              <mxPoint x="428" y="115" />
            </Array>
          </mxGeometry>
        </mxCell>
        <mxCell id="ibVQva4vcaxdjQody1lK-13" value="Value" style="rounded=1;whiteSpace=wrap;html=1;fillColor=#dae8fc;strokeColor=#6c8ebf;" parent="1" vertex="1">
          <mxGeometry x="400" y="195" width="76" height="30" as="geometry" />
        </mxCell>
        <mxCell id="ibVQva4vcaxdjQody1lK-14" value="Key" style="rounded=1;whiteSpace=wrap;html=1;fillColor=#dae8fc;strokeColor=#6c8ebf;" parent="1" vertex="1">
          <mxGeometry x="484" y="195" width="76" height="30" as="geometry" />
        </mxCell>
        <mxCell id="ibVQva4vcaxdjQody1lK-15" value="Query" style="rounded=1;whiteSpace=wrap;html=1;fillColor=#dae8fc;strokeColor=#6c8ebf;" parent="1" vertex="1">
          <mxGeometry x="592" y="195" width="76" height="30" as="geometry" />
        </mxCell>
        <mxCell id="ibVQva4vcaxdjQody1lK-19" value="&lt;font style=&quot;font-size: 15px;&quot;&gt;Adapter2&lt;/font&gt;" style="rounded=1;whiteSpace=wrap;html=1;fillColor=#FF9933;strokeColor=#cd4c4c;shadow=0;gradientColor=none;strokeWidth=4;" parent="1" vertex="1">
          <mxGeometry x="130" y="290" width="150" height="80" as="geometry" />
        </mxCell>
        <mxCell id="v0FEULq-0MWJoLw7AnLs-16" value="" style="group" vertex="1" connectable="0" parent="1">
          <mxGeometry x="390" y="280" width="120" height="140" as="geometry" />
        </mxCell>
        <mxCell id="v0FEULq-0MWJoLw7AnLs-17" value="" style="rounded=1;whiteSpace=wrap;html=1;fillColor=#FF9933;strokeColor=#cd4c4c;shadow=0;gradientColor=none;strokeWidth=4;movable=1;resizable=1;rotatable=1;deletable=1;editable=1;locked=0;connectable=1;" vertex="1" parent="v0FEULq-0MWJoLw7AnLs-16">
          <mxGeometry width="120" height="140" as="geometry" />
        </mxCell>
        <mxCell id="v0FEULq-0MWJoLw7AnLs-18" value="down project" style="shape=trapezoid;perimeter=trapezoidPerimeter;whiteSpace=wrap;html=1;fixedSize=1;fillColor=#ffe6cc;strokeColor=#d79b00;movable=1;resizable=1;rotatable=1;deletable=1;editable=1;locked=0;connectable=1;" vertex="1" parent="v0FEULq-0MWJoLw7AnLs-16">
          <mxGeometry x="24" y="90.58823529411764" width="72" height="24.705882352941174" as="geometry" />
        </mxCell>
        <mxCell id="v0FEULq-0MWJoLw7AnLs-19" value="up prpject" style="shape=trapezoid;perimeter=trapezoidPerimeter;whiteSpace=wrap;html=1;fixedSize=1;fillColor=#ffe6cc;strokeColor=#d79b00;rotation=0;flipH=0;flipV=1;movable=1;resizable=1;rotatable=1;deletable=1;editable=1;locked=0;connectable=1;" vertex="1" parent="v0FEULq-0MWJoLw7AnLs-16">
          <mxGeometry x="24" y="16.470588235294116" width="72" height="24.705882352941174" as="geometry" />
        </mxCell>
        <mxCell id="v0FEULq-0MWJoLw7AnLs-20" style="edgeStyle=orthogonalEdgeStyle;rounded=0;orthogonalLoop=1;jettySize=auto;html=1;entryX=0.5;entryY=1;entryDx=0;entryDy=0;movable=1;resizable=1;rotatable=1;deletable=1;editable=1;locked=0;connectable=1;" edge="1" parent="v0FEULq-0MWJoLw7AnLs-16" source="v0FEULq-0MWJoLw7AnLs-18" target="v0FEULq-0MWJoLw7AnLs-19">
          <mxGeometry relative="1" as="geometry" />
        </mxCell>
        <mxCell id="v0FEULq-0MWJoLw7AnLs-21" value="&lt;font style=&quot;font-size: 13px; background-color: rgb(255, 153, 51);&quot;&gt;激活函数&lt;/font&gt;" style="edgeLabel;html=1;align=center;verticalAlign=middle;resizable=1;points=[];movable=1;rotatable=1;deletable=1;editable=1;locked=0;connectable=1;" vertex="1" connectable="0" parent="v0FEULq-0MWJoLw7AnLs-20">
          <mxGeometry x="0.0807" relative="1" as="geometry">
            <mxPoint as="offset" />
          </mxGeometry>
        </mxCell>
        <mxCell id="v0FEULq-0MWJoLw7AnLs-28" style="edgeStyle=orthogonalEdgeStyle;rounded=0;orthogonalLoop=1;jettySize=auto;html=1;exitX=0.25;exitY=0;exitDx=0;exitDy=0;endSize=1;entryX=0.396;entryY=0.963;entryDx=0;entryDy=0;entryPerimeter=0;opacity=50;strokeWidth=3;" edge="1" parent="1" source="v0FEULq-0MWJoLw7AnLs-2" target="ibVQva4vcaxdjQody1lK-13">
          <mxGeometry relative="1" as="geometry">
            <mxPoint x="428" y="223" as="targetPoint" />
          </mxGeometry>
        </mxCell>
        <mxCell id="v0FEULq-0MWJoLw7AnLs-36" style="edgeStyle=orthogonalEdgeStyle;rounded=0;orthogonalLoop=1;jettySize=auto;html=1;exitX=0.857;exitY=-0.001;exitDx=0;exitDy=0;entryX=0.25;entryY=1;entryDx=0;entryDy=0;exitPerimeter=0;fillColor=#f8cecc;strokeColor=#b85450;endSize=1;strokeWidth=3;opacity=50;" edge="1" parent="1" source="v0FEULq-0MWJoLw7AnLs-2" target="ibVQva4vcaxdjQody1lK-14">
          <mxGeometry relative="1" as="geometry" />
        </mxCell>
        <mxCell id="v0FEULq-0MWJoLw7AnLs-2" value="" style="rounded=1;whiteSpace=wrap;html=1;fillColor=#FF9933;strokeColor=#cd4c4c;shadow=0;gradientColor=none;strokeWidth=4;movable=1;resizable=1;rotatable=1;deletable=1;editable=1;locked=0;connectable=1;" vertex="1" parent="1">
          <mxGeometry x="400" y="275" width="120" height="140" as="geometry" />
        </mxCell>
        <mxCell id="v0FEULq-0MWJoLw7AnLs-5" value="down project" style="shape=trapezoid;perimeter=trapezoidPerimeter;whiteSpace=wrap;html=1;fixedSize=1;fillColor=#ffe6cc;strokeColor=#d79b00;movable=1;resizable=1;rotatable=1;deletable=1;editable=1;locked=0;connectable=1;" vertex="1" parent="1">
          <mxGeometry x="424" y="384.99823529411765" width="72" height="24.705882352941174" as="geometry" />
        </mxCell>
        <mxCell id="v0FEULq-0MWJoLw7AnLs-32" style="edgeStyle=orthogonalEdgeStyle;rounded=0;orthogonalLoop=1;jettySize=auto;html=1;exitX=0.472;exitY=0.991;exitDx=0;exitDy=0;entryX=0.5;entryY=1;entryDx=0;entryDy=0;exitPerimeter=0;" edge="1" parent="1" source="v0FEULq-0MWJoLw7AnLs-6" target="v0FEULq-0MWJoLw7AnLs-26">
          <mxGeometry relative="1" as="geometry">
            <Array as="points">
              <mxPoint x="460" y="325" />
              <mxPoint x="460" y="325" />
            </Array>
          </mxGeometry>
        </mxCell>
        <mxCell id="v0FEULq-0MWJoLw7AnLs-6" value="up prpject" style="shape=trapezoid;perimeter=trapezoidPerimeter;whiteSpace=wrap;html=1;fixedSize=1;fillColor=#ffe6cc;strokeColor=#d79b00;rotation=0;flipH=0;flipV=1;movable=1;resizable=1;rotatable=1;deletable=1;editable=1;locked=0;connectable=1;" vertex="1" parent="1">
          <mxGeometry x="424" y="334.40999999999997" width="76" height="21.18" as="geometry" />
        </mxCell>
        <mxCell id="v0FEULq-0MWJoLw7AnLs-9" style="edgeStyle=orthogonalEdgeStyle;rounded=0;orthogonalLoop=1;jettySize=auto;html=1;movable=1;resizable=1;rotatable=1;deletable=1;editable=1;locked=0;connectable=1;endSize=3;" edge="1" parent="1" source="v0FEULq-0MWJoLw7AnLs-5">
          <mxGeometry relative="1" as="geometry">
            <mxPoint x="460" y="355" as="targetPoint" />
          </mxGeometry>
        </mxCell>
        <mxCell id="v0FEULq-0MWJoLw7AnLs-10" value="&lt;font style=&quot;font-size: 13px; background-color: rgb(255, 153, 51);&quot;&gt;激活函数&lt;/font&gt;" style="edgeLabel;html=1;align=center;verticalAlign=middle;resizable=1;points=[];movable=1;rotatable=1;deletable=1;editable=1;locked=0;connectable=1;" vertex="1" connectable="0" parent="v0FEULq-0MWJoLw7AnLs-9">
          <mxGeometry x="0.0807" relative="1" as="geometry">
            <mxPoint y="2" as="offset" />
          </mxGeometry>
        </mxCell>
        <mxCell id="v0FEULq-0MWJoLw7AnLs-34" style="edgeStyle=orthogonalEdgeStyle;rounded=0;orthogonalLoop=1;jettySize=auto;html=1;entryX=0.789;entryY=0.974;entryDx=0;entryDy=0;entryPerimeter=0;endSize=1;strokeWidth=3;" edge="1" parent="1" source="v0FEULq-0MWJoLw7AnLs-26" target="ibVQva4vcaxdjQody1lK-13">
          <mxGeometry relative="1" as="geometry" />
        </mxCell>
        <mxCell id="v0FEULq-0MWJoLw7AnLs-26" value="＋" style="ellipse;whiteSpace=wrap;html=1;aspect=fixed;" vertex="1" parent="1">
          <mxGeometry x="449" y="291" width="22" height="20" as="geometry" />
        </mxCell>
        <mxCell id="v0FEULq-0MWJoLw7AnLs-29" style="edgeStyle=orthogonalEdgeStyle;rounded=0;orthogonalLoop=1;jettySize=auto;html=1;exitX=0.206;exitY=-0.006;exitDx=0;exitDy=0;exitPerimeter=0;entryX=0;entryY=0.5;entryDx=0;entryDy=0;endSize=3;strokeWidth=2;" edge="1" parent="1" source="ibVQva4vcaxdjQody1lK-8" target="v0FEULq-0MWJoLw7AnLs-26">
          <mxGeometry relative="1" as="geometry">
            <Array as="points">
              <mxPoint x="411" y="415" />
              <mxPoint x="410" y="415" />
              <mxPoint x="410" y="301" />
            </Array>
          </mxGeometry>
        </mxCell>
        <mxCell id="v0FEULq-0MWJoLw7AnLs-22" style="edgeStyle=orthogonalEdgeStyle;rounded=0;orthogonalLoop=1;jettySize=auto;html=1;entryX=0.5;entryY=1;entryDx=0;entryDy=0;endSize=1;strokeWidth=2;" edge="1" parent="1" target="v0FEULq-0MWJoLw7AnLs-5">
          <mxGeometry relative="1" as="geometry">
            <mxPoint x="460" y="435" as="sourcePoint" />
            <Array as="points">
              <mxPoint x="460" y="435" />
            </Array>
          </mxGeometry>
        </mxCell>
        <mxCell id="v0FEULq-0MWJoLw7AnLs-35" value="" style="endArrow=classic;html=1;rounded=0;fillColor=#f8cecc;strokeColor=#b85450;endSize=1;entryX=0.616;entryY=0.973;entryDx=0;entryDy=0;entryPerimeter=0;strokeWidth=3;" edge="1" parent="1" target="ibVQva4vcaxdjQody1lK-14">
          <mxGeometry width="50" height="50" relative="1" as="geometry">
            <mxPoint x="460" y="325" as="sourcePoint" />
            <mxPoint x="520" y="225" as="targetPoint" />
            <Array as="points">
              <mxPoint x="530" y="325" />
            </Array>
          </mxGeometry>
        </mxCell>
        <mxCell id="v0FEULq-0MWJoLw7AnLs-37" value="" style="endArrow=classic;html=1;rounded=0;entryX=0.437;entryY=0.957;entryDx=0;entryDy=0;entryPerimeter=0;endSize=3;" edge="1" parent="1" target="ibVQva4vcaxdjQody1lK-15">
          <mxGeometry width="50" height="50" relative="1" as="geometry">
            <mxPoint x="460" y="425" as="sourcePoint" />
            <mxPoint x="620" y="365" as="targetPoint" />
            <Array as="points">
              <mxPoint x="625" y="425" />
            </Array>
          </mxGeometry>
        </mxCell>
        <mxCell id="v0FEULq-0MWJoLw7AnLs-44" style="edgeStyle=orthogonalEdgeStyle;rounded=0;orthogonalLoop=1;jettySize=auto;html=1;exitX=0.5;exitY=0;exitDx=0;exitDy=0;entryX=0.5;entryY=1;entryDx=0;entryDy=0;endArrow=none;endFill=0;" edge="1" parent="1" source="v0FEULq-0MWJoLw7AnLs-39" target="v0FEULq-0MWJoLw7AnLs-40">
          <mxGeometry relative="1" as="geometry" />
        </mxCell>
        <mxCell id="v0FEULq-0MWJoLw7AnLs-39" value="×" style="ellipse;whiteSpace=wrap;html=1;aspect=fixed;" vertex="1" parent="1">
          <mxGeometry x="509" y="165" width="22" height="20" as="geometry" />
        </mxCell>
        <mxCell id="v0FEULq-0MWJoLw7AnLs-46" style="edgeStyle=orthogonalEdgeStyle;rounded=0;orthogonalLoop=1;jettySize=auto;html=1;exitX=0.5;exitY=0;exitDx=0;exitDy=0;entryX=0.5;entryY=1;entryDx=0;entryDy=0;endArrow=none;endFill=0;" edge="1" parent="1" source="v0FEULq-0MWJoLw7AnLs-40" target="v0FEULq-0MWJoLw7AnLs-45">
          <mxGeometry relative="1" as="geometry" />
        </mxCell>
        <mxCell id="v0FEULq-0MWJoLw7AnLs-40" value="softmax" style="rounded=1;whiteSpace=wrap;html=1;" vertex="1" parent="1">
          <mxGeometry x="496" y="135" width="48" height="20" as="geometry" />
        </mxCell>
        <mxCell id="v0FEULq-0MWJoLw7AnLs-41" value="" style="curved=1;endArrow=classic;html=1;rounded=0;entryX=0;entryY=1;entryDx=0;entryDy=0;exitX=0.25;exitY=0;exitDx=0;exitDy=0;endSize=2;fillColor=#f8cecc;strokeColor=#b85450;" edge="1" parent="1" source="ibVQva4vcaxdjQody1lK-14" target="v0FEULq-0MWJoLw7AnLs-39">
          <mxGeometry width="50" height="50" relative="1" as="geometry">
            <mxPoint x="435" y="180" as="sourcePoint" />
            <mxPoint x="485" y="130" as="targetPoint" />
          </mxGeometry>
        </mxCell>
        <mxCell id="v0FEULq-0MWJoLw7AnLs-42" value="" style="curved=1;endArrow=classic;html=1;rounded=0;endSize=2;fillColor=#f8cecc;strokeColor=#b85450;exitX=0.453;exitY=0.063;exitDx=0;exitDy=0;exitPerimeter=0;" edge="1" parent="1" source="ibVQva4vcaxdjQody1lK-14">
          <mxGeometry width="50" height="50" relative="1" as="geometry">
            <mxPoint x="515" y="195" as="sourcePoint" />
            <mxPoint x="520" y="185" as="targetPoint" />
          </mxGeometry>
        </mxCell>
        <mxCell id="v0FEULq-0MWJoLw7AnLs-43" value="" style="endArrow=classic;html=1;rounded=0;exitX=0.5;exitY=0;exitDx=0;exitDy=0;entryX=1;entryY=0.5;entryDx=0;entryDy=0;endSize=3;" edge="1" parent="1" source="ibVQva4vcaxdjQody1lK-15" target="v0FEULq-0MWJoLw7AnLs-39">
          <mxGeometry width="50" height="50" relative="1" as="geometry">
            <mxPoint x="620" y="185" as="sourcePoint" />
            <mxPoint x="670" y="135" as="targetPoint" />
            <Array as="points">
              <mxPoint x="630" y="175" />
            </Array>
          </mxGeometry>
        </mxCell>
        <mxCell id="v0FEULq-0MWJoLw7AnLs-45" value="×" style="ellipse;whiteSpace=wrap;html=1;aspect=fixed;" vertex="1" parent="1">
          <mxGeometry x="508" y="105" width="22" height="20" as="geometry" />
        </mxCell>
        <mxCell id="v0FEULq-0MWJoLw7AnLs-50" value="" style="shape=image;verticalLabelPosition=bottom;labelBackgroundColor=default;verticalAlign=top;aspect=fixed;imageAspect=0;image=data:image/png,iVBORw0KGgoAAAANSUhEUgAAAOEAAADhCAMAAAAJbSJIAAAAb1BMVEX29vZLS0v7+/tHR0f+/v5AQED5+flYWFixsbHk5OREREQ8PDxwcHBCQkKOjo44ODjU1NTt7e1OTk5mZmby8vLb29uioqKamppTU1OEhITMzMyhoaG6urpsbGzDw8NfX195eXmsrKyKioqUlJR3d3d+ajomAAAJBUlEQVR4nO2d6XqqMBCGdbIgiQi4r6jH3v81HmjPqUlAmyDB0Gfev5YmX9bJNjMaIQiCIAiCIAiCIAiCIAiCIAiCIL8MDkDvAPB3Z6hTSnXL7LjZnSIiU0mi025zzJa/RiWnPDucpGRCkPEXRAgm5emQ8V8gEmB1m8vkvzYVkqTb2wrg3Vl8CeDFIhUN6v4j0kUxYI3Aj5Fsqj2tJuW54ANtq3R//lHfl8ZFRt+d2RZAvrPS96VxthxcU6WFeNb/TJLxfljVyOFP6qCvIr3RAfVGyKPEUeB4zBbLwUiEeG7bA1VElA+kM8JKtBFYDjjz1SAkwqrRgrGSmAxBIsTkscDSIBXiSQ0TEgcvkefbZgEkkSz62N02t91HxJot1fKvtnnoww1fNE6DTE7X2XJULQzLZeJoma2nsnG4FYvAK5HeWEPFyOga66vBcsUYX7eyqSxuQU/9sG+Y6FlUNC12y7XhcdtQHuk+5Fpc1nNM0vXD5RHwdVrvj6LXLLtBd7VOyM7xs1ZH47r1I/4E2055Vmuj8vbDPgXnf2q9Mc1CHU/hbDY5ef25OujVlEhCHU/haGZVHm3aG61/V4QpESKjCm1qsKJWi4FWIhRGPu1nNjozxmC5D7En0qlehWRhn0u+ML69BDic8tioBxY7KIzN+nf4uC9grU9sbO1SDXStlw+7htcTuTFVbN2yCPPQxxq+0md7eXRUeNQrUQbXTOFqdEPXOgC9CTDHEvIPvWg5TJz7ERy0fix2wY2mej9KnRsZj/VmHgXWSo38kZN7DVB9qJK5h2y+ABRaN0zW7r0INlozDc2sgauevRbrH77XZn02CWuogZm29k2XLf5HrjV0sQlLoTGUbtu0MK6NNKENpnBSFZKPNuVv/I/AjG/dZmtX/no7IKewWimPtBbWai9J38ci57DGUkPhrE35U320CmzK70IhoMK3ggptQIXvBRXagArfCyq0ARW+A/4NGAopd8e0S+H+01vUAR3l8R1d4U79yZZcPyOP1J9GtO+1FM0n07lgd8YahLXBOH5UfhHz6STvc0XMR4fEzI9nCEsOo95aK6zmDfdgvMO2fV16g8z6Ane3EJn1IrF2mtkjSS8nUrULCT3Sy7Ei1K6/9InrsWQrhW/UVxJ5nzOM04XeSVe+eyJsXB6KdI/70asr2q2Z5NvoMC4YtrNpHqL8d//HGVQ1QK+Tb0Sqsph0yvVeqmTRo0IyrW5t/yPXWEKnqA3H+1CjK/Sc2HeiqLDTxFChl0RRYaeJoUIviaLCThNDhV4SRYWdJoYKvSSKCjtNDBV6SRQVdprYKwqrZ9x59aDbNdGBKKT58UISlpDL0fGkbBgKYbmR/07kCJMbJ487g1AIK6LuOCbExQPGEBRCbatcOjy7H4BCvqofqTL7/fkBKFw2uOQhc+snC+ErhEPTqTg72LbT8BXmzV6jEtunTcErNF9Pflei7XFn+Arr7jI+EbvfotB8Ivz9D2yfVASvcPToagOxTTR4hY/876W2iQav8NENKmabaPAK503ySua2iYausMH10CfWZ/LBK/z98+Eof6Dw19g0I9g02qXWL33DVzhaNrgaJNtftLYoV/j1KTG1X+X3q/Bugblc3inX+IYXIac1/t0FETl7V9gyMVhFal9kkdM+TbtibYfaYLYuiXF+vU/886vTGwp6/9L/NrQ6ewu3nV2a/d+Nko4eyuG+gvbvclC9fWk9n/379Nt3husVSmU+9e9MQnV4Jd1us9Ldd/QHtyuUfHXfivR/v1R108LcnP9RpX07KXwhzRbwTClP682yzy+VVwxufq5UzzWO7aYNio8Vx4MLxf5283NFFZcgrfzCuEHHd2x3Ib4+VB7fiZlL2SwVY8FphmqHOl04uRKi23G7jKodow//tKq/JBd3ULpfRRe/iGo37MO3klqiLnab7ivLZUhUnyH1MNCUEpWcOpwf6Q81HCZudTZ0NaPaoboCcpgvqOai1MGApkrR9OM8Stt12Vp/luu7UcLe4lN26vzP95/kSqux9mlsvpeydjinFaj0PxtWqM3U+kGg6cDVehhWXWj35eFMc4lsu1Sni1SqpJYdUU+sNy/YyphhXYmZid1nmhd02z3yl6GqD0fbcq25ULD6CiZKFbbxN9kO/a2z14Jdqn2X9Re/RDuISDb+uj+dqU8Pe4yZoJkZHh+ughZsoVcf31olEn9+VtRjuX7DXugLhcRT2vSi2kH9eBu4J665xJUTHxL1kAluPt47QBvkxj4cVhiX/ewt4K7S18NuJJ27HQH9st8bgnrQqeZtdN7xXAWxdpIj3uCRlusHux2HE4N4rCkk/SwqjEwUupPyLqMXmgLfFOXKiJ1CunMBBCtdIPNoNj3FuK9GREdBb2mhO6ESb3OazGPjdL6TeZHDWj8S73wUcwAyM8bP7uW4vpBPjUvvbw1sWYuAJOYvxvWlBTEuULkc+HuATsxLFnI2ap8jWO7MVwvpu+N30aspMZkXLWMXc3o0K3CcejF5nahLHKenVQuNnGbnehg9q8htnqk31DFJL64agWanerTHtAhAYDU41J1jkfRj/zB0ZQ0OvFjU9ZEklKjypQlSv0BK5HmS0x/iO1ZUQVfX2wZHhaI3P4k/A/mpKYQsYx/HuCnIqvJlKW9yagycKz9CikTO+a3xtnopcrHZ51DWpZnbsuoo5MXtLBv9hBJ5sKj/PqH7hpb6mVUhxXl33cc5p/TLdRatHsvGxfoSJfJBCOtkG0oXvAP57tGjg1JlUtbUPJruZpvDbbY7RXPyMHB1RTp72frzAKdF8oM/virwePI09PhXBY5fNP28ActZQwBjV0i6ecHu8w1dnV70T1saC09DJL+d0vR6RaOQH20Mvn4pNV5kO/+YCduFr6+C09WNODvDJnK8iQehr4LTfLJ4NhvU5DE5PY4Go++Tytg8SWbTXAVj02vcu1v516ks6uOfbcqeTH9EsDSaFflz4zVgOFC+Ot5OJJUsEUS5pFJaOUym4+mmiPkAa0+jrErgeXZczy6LrShllfZbdLrMrkWWf/727gx2BP+0txV+kTYEQRAEQRAEQRAEQRAEQRAEQRDkH38Bf/6BUcd5NM4AAAAASUVORK5CYII=;" vertex="1" parent="1">
          <mxGeometry x="495" y="535" width="25" height="25" as="geometry" />
        </mxCell>
        <mxCell id="v0FEULq-0MWJoLw7AnLs-51" value="" style="shape=image;verticalLabelPosition=bottom;labelBackgroundColor=default;verticalAlign=top;aspect=fixed;imageAspect=0;image=data:image/png,iVBORw0KGgoAAAANSUhEUgAAAOEAAADhCAMAAAAJbSJIAAAAb1BMVEX29vZLS0v7+/tHR0f+/v5AQED5+flYWFixsbHk5OREREQ8PDxwcHBCQkKOjo44ODjU1NTt7e1OTk5mZmby8vLb29uioqKamppTU1OEhITMzMyhoaG6urpsbGzDw8NfX195eXmsrKyKioqUlJR3d3d+ajomAAAJBUlEQVR4nO2d6XqqMBCGdbIgiQi4r6jH3v81HmjPqUlAmyDB0Gfev5YmX9bJNjMaIQiCIAiCIAiCIAiCIAiCIAiCIL8MDkDvAPB3Z6hTSnXL7LjZnSIiU0mi025zzJa/RiWnPDucpGRCkPEXRAgm5emQ8V8gEmB1m8vkvzYVkqTb2wrg3Vl8CeDFIhUN6v4j0kUxYI3Aj5Fsqj2tJuW54ANtq3R//lHfl8ZFRt+d2RZAvrPS96VxthxcU6WFeNb/TJLxfljVyOFP6qCvIr3RAfVGyKPEUeB4zBbLwUiEeG7bA1VElA+kM8JKtBFYDjjz1SAkwqrRgrGSmAxBIsTkscDSIBXiSQ0TEgcvkefbZgEkkSz62N02t91HxJot1fKvtnnoww1fNE6DTE7X2XJULQzLZeJoma2nsnG4FYvAK5HeWEPFyOga66vBcsUYX7eyqSxuQU/9sG+Y6FlUNC12y7XhcdtQHuk+5Fpc1nNM0vXD5RHwdVrvj6LXLLtBd7VOyM7xs1ZH47r1I/4E2055Vmuj8vbDPgXnf2q9Mc1CHU/hbDY5ef25OujVlEhCHU/haGZVHm3aG61/V4QpESKjCm1qsKJWi4FWIhRGPu1nNjozxmC5D7En0qlehWRhn0u+ML69BDic8tioBxY7KIzN+nf4uC9grU9sbO1SDXStlw+7htcTuTFVbN2yCPPQxxq+0md7eXRUeNQrUQbXTOFqdEPXOgC9CTDHEvIPvWg5TJz7ERy0fix2wY2mej9KnRsZj/VmHgXWSo38kZN7DVB9qJK5h2y+ABRaN0zW7r0INlozDc2sgauevRbrH77XZn02CWuogZm29k2XLf5HrjV0sQlLoTGUbtu0MK6NNKENpnBSFZKPNuVv/I/AjG/dZmtX/no7IKewWimPtBbWai9J38ci57DGUkPhrE35U320CmzK70IhoMK3ggptQIXvBRXagArfCyq0ARW+A/4NGAopd8e0S+H+01vUAR3l8R1d4U79yZZcPyOP1J9GtO+1FM0n07lgd8YahLXBOH5UfhHz6STvc0XMR4fEzI9nCEsOo95aK6zmDfdgvMO2fV16g8z6Ane3EJn1IrF2mtkjSS8nUrULCT3Sy7Ei1K6/9InrsWQrhW/UVxJ5nzOM04XeSVe+eyJsXB6KdI/70asr2q2Z5NvoMC4YtrNpHqL8d//HGVQ1QK+Tb0Sqsph0yvVeqmTRo0IyrW5t/yPXWEKnqA3H+1CjK/Sc2HeiqLDTxFChl0RRYaeJoUIviaLCThNDhV4SRYWdJoYKvSSKCjtNDBV6SRQVdprYKwqrZ9x59aDbNdGBKKT58UISlpDL0fGkbBgKYbmR/07kCJMbJ487g1AIK6LuOCbExQPGEBRCbatcOjy7H4BCvqofqTL7/fkBKFw2uOQhc+snC+ErhEPTqTg72LbT8BXmzV6jEtunTcErNF9Pflei7XFn+Arr7jI+EbvfotB8Ivz9D2yfVASvcPToagOxTTR4hY/876W2iQav8NENKmabaPAK503ySua2iYausMH10CfWZ/LBK/z98+Eof6Dw19g0I9g02qXWL33DVzhaNrgaJNtftLYoV/j1KTG1X+X3q/Bugblc3inX+IYXIac1/t0FETl7V9gyMVhFal9kkdM+TbtibYfaYLYuiXF+vU/886vTGwp6/9L/NrQ6ewu3nV2a/d+Nko4eyuG+gvbvclC9fWk9n/379Nt3husVSmU+9e9MQnV4Jd1us9Ldd/QHtyuUfHXfivR/v1R108LcnP9RpX07KXwhzRbwTClP682yzy+VVwxufq5UzzWO7aYNio8Vx4MLxf5283NFFZcgrfzCuEHHd2x3Ib4+VB7fiZlL2SwVY8FphmqHOl04uRKi23G7jKodow//tKq/JBd3ULpfRRe/iGo37MO3klqiLnab7ivLZUhUnyH1MNCUEpWcOpwf6Q81HCZudTZ0NaPaoboCcpgvqOai1MGApkrR9OM8Stt12Vp/luu7UcLe4lN26vzP95/kSqux9mlsvpeydjinFaj0PxtWqM3U+kGg6cDVehhWXWj35eFMc4lsu1Sni1SqpJYdUU+sNy/YyphhXYmZid1nmhd02z3yl6GqD0fbcq25ULD6CiZKFbbxN9kO/a2z14Jdqn2X9Re/RDuISDb+uj+dqU8Pe4yZoJkZHh+ughZsoVcf31olEn9+VtRjuX7DXugLhcRT2vSi2kH9eBu4J665xJUTHxL1kAluPt47QBvkxj4cVhiX/ewt4K7S18NuJJ27HQH9st8bgnrQqeZtdN7xXAWxdpIj3uCRlusHux2HE4N4rCkk/SwqjEwUupPyLqMXmgLfFOXKiJ1CunMBBCtdIPNoNj3FuK9GREdBb2mhO6ESb3OazGPjdL6TeZHDWj8S73wUcwAyM8bP7uW4vpBPjUvvbw1sWYuAJOYvxvWlBTEuULkc+HuATsxLFnI2ap8jWO7MVwvpu+N30aspMZkXLWMXc3o0K3CcejF5nahLHKenVQuNnGbnehg9q8htnqk31DFJL64agWanerTHtAhAYDU41J1jkfRj/zB0ZQ0OvFjU9ZEklKjypQlSv0BK5HmS0x/iO1ZUQVfX2wZHhaI3P4k/A/mpKYQsYx/HuCnIqvJlKW9yagycKz9CikTO+a3xtnopcrHZ51DWpZnbsuoo5MXtLBv9hBJ5sKj/PqH7hpb6mVUhxXl33cc5p/TLdRatHsvGxfoSJfJBCOtkG0oXvAP57tGjg1JlUtbUPJruZpvDbbY7RXPyMHB1RTp72frzAKdF8oM/virwePI09PhXBY5fNP28ActZQwBjV0i6ecHu8w1dnV70T1saC09DJL+d0vR6RaOQH20Mvn4pNV5kO/+YCduFr6+C09WNODvDJnK8iQehr4LTfLJ4NhvU5DE5PY4Go++Tytg8SWbTXAVj02vcu1v516ks6uOfbcqeTH9EsDSaFflz4zVgOFC+Ot5OJJUsEUS5pFJaOUym4+mmiPkAa0+jrErgeXZczy6LrShllfZbdLrMrkWWf/727gx2BP+0txV+kTYEQRAEQRAEQRAEQRAEQRAEQRDkH38Bf/6BUcd5NM4AAAAASUVORK5CYII=;" vertex="1" parent="1">
          <mxGeometry x="495" y="384.7" width="25" height="25" as="geometry" />
        </mxCell>
      </root>
    </mxGraphModel>
  </diagram>
</mxfile>
